<?xml version="1.0" encoding="utf-8" standalone="no"?>
<!DOCTYPE svg PUBLIC "-//W3C//DTD SVG 1.1//EN"
  "http://www.w3.org/Graphics/SVG/1.1/DTD/svg11.dtd">
<svg xmlns:xlink="http://www.w3.org/1999/xlink" width="720pt" height="576pt" viewBox="0 0 720 576" xmlns="http://www.w3.org/2000/svg" version="1.1">
 <metadata>
  <rdf:RDF xmlns:dc="http://purl.org/dc/elements/1.1/" xmlns:cc="http://creativecommons.org/ns#" xmlns:rdf="http://www.w3.org/1999/02/22-rdf-syntax-ns#">
   <cc:Work>
    <dc:type rdf:resource="http://purl.org/dc/dcmitype/StillImage"/>
    <dc:date>2026-06-19T11:36:59.128293</dc:date>
    <dc:format>image/svg+xml</dc:format>
    <dc:creator>
     <cc:Agent>
      <dc:title>Matplotlib v3.10.8, https://matplotlib.org/</dc:title>
     </cc:Agent>
    </dc:creator>
   </cc:Work>
  </rdf:RDF>
 </metadata>
 <defs>
  <style type="text/css">*{stroke-linejoin: round; stroke-linecap: butt}</style>
 </defs>
 <g id="figure_1">
  <g id="patch_1">
   <path d="M 0 576 
L 720 576 
L 720 0 
L 0 0 
z
" style="fill: #ffffff"/>
  </g>
  <g id="axes_1">
   <g id="patch_2">
    <path d="M 40.827081 126.580116 
L 709.2 126.580116 
L 709.2 25.44 
L 40.827081 25.44 
z
" style="fill: #ffffff"/>
   </g>
   <g id="matplotlib.axis_1">
    <g id="xtick_1"/>
    <g id="xtick_2"/>
    <g id="xtick_3"/>
    <g id="xtick_4"/>
    <g id="xtick_5"/>
    <g id="xtick_6"/>
    <g id="xtick_7"/>
    <g id="xtick_8"/>
    <g id="xtick_9"/>
    <g id="xtick_10"/>
    <g id="xtick_11"/>
    <g id="xtick_12"/>
    <g id="xtick_13"/>
    <g id="xtick_14"/>
    <g id="xtick_15"/>
    <g id="xtick_16"/>
    <g id="xtick_17"/>
   </g>
   <g id="matplotlib.axis_2">
    <g id="ytick_1">
     <g id="line2d_1">
      <defs>
       <path id="m1cae5a1cd3" d="M 0 0 
L -3.5 0 
" style="stroke: #000000; stroke-width: 0.8"/>
      </defs>
      <g>
       <use xlink:href="#m1cae5a1cd3" x="40.827081" y="97.377534" style="stroke: #000000; stroke-width: 0.8"/>
      </g>
     </g>
     <g id="text_1">
      <!-- 10 -->
      <g transform="translate(21.102081 101.176753) scale(0.1 -0.1)">
       <defs>
        <path id="DejaVuSans-31" d="M 794 531 
L 1825 531 
L 1825 4091 
L 703 3866 
L 703 4441 
L 1819 4666 
L 2450 4666 
L 2450 531 
L 3481 531 
L 3481 0 
L 794 0 
L 794 531 
z
" transform="scale(0.015625)"/>
        <path id="DejaVuSans-30" d="M 2034 4250 
Q 1547 4250 1301 3770 
Q 1056 3291 1056 2328 
Q 1056 1369 1301 889 
Q 1547 409 2034 409 
Q 2525 409 2770 889 
Q 3016 1369 3016 2328 
Q 3016 3291 2770 3770 
Q 2525 4250 2034 4250 
z
M 2034 4750 
Q 2819 4750 3233 4129 
Q 3647 3509 3647 2328 
Q 3647 1150 3233 529 
Q 2819 -91 2034 -91 
Q 1250 -91 836 529 
Q 422 1150 422 2328 
Q 422 3509 836 4129 
Q 1250 4750 2034 4750 
z
" transform="scale(0.015625)"/>
       </defs>
       <use xlink:href="#DejaVuSans-31"/>
       <use xlink:href="#DejaVuSans-30" transform="translate(63.623047 0)"/>
      </g>
     </g>
    </g>
    <g id="ytick_2">
     <g id="line2d_2">
      <g>
       <use xlink:href="#m1cae5a1cd3" x="40.827081" y="63.134444" style="stroke: #000000; stroke-width: 0.8"/>
      </g>
     </g>
     <g id="text_2">
      <!-- 20 -->
      <g transform="translate(21.102081 66.933663) scale(0.1 -0.1)">
       <defs>
        <path id="DejaVuSans-32" d="M 1228 531 
L 3431 531 
L 3431 0 
L 469 0 
L 469 531 
Q 828 903 1448 1529 
Q 2069 2156 2228 2338 
Q 2531 2678 2651 2914 
Q 2772 3150 2772 3378 
Q 2772 3750 2511 3984 
Q 2250 4219 1831 4219 
Q 1534 4219 1204 4116 
Q 875 4013 500 3803 
L 500 4441 
Q 881 4594 1212 4672 
Q 1544 4750 1819 4750 
Q 2544 4750 2975 4387 
Q 3406 4025 3406 3419 
Q 3406 3131 3298 2873 
Q 3191 2616 2906 2266 
Q 2828 2175 2409 1742 
Q 1991 1309 1228 531 
z
" transform="scale(0.015625)"/>
       </defs>
       <use xlink:href="#DejaVuSans-32"/>
       <use xlink:href="#DejaVuSans-30" transform="translate(63.623047 0)"/>
      </g>
     </g>
    </g>
    <g id="ytick_3">
     <g id="line2d_3">
      <g>
       <use xlink:href="#m1cae5a1cd3" x="40.827081" y="28.891354" style="stroke: #000000; stroke-width: 0.8"/>
      </g>
     </g>
     <g id="text_3">
      <!-- 30 -->
      <g transform="translate(21.102081 32.690572) scale(0.1 -0.1)">
       <defs>
        <path id="DejaVuSans-33" d="M 2597 2516 
Q 3050 2419 3304 2112 
Q 3559 1806 3559 1356 
Q 3559 666 3084 287 
Q 2609 -91 1734 -91 
Q 1441 -91 1130 -33 
Q 819 25 488 141 
L 488 750 
Q 750 597 1062 519 
Q 1375 441 1716 441 
Q 2309 441 2620 675 
Q 2931 909 2931 1356 
Q 2931 1769 2642 2001 
Q 2353 2234 1838 2234 
L 1294 2234 
L 1294 2753 
L 1863 2753 
Q 2328 2753 2575 2939 
Q 2822 3125 2822 3475 
Q 2822 3834 2567 4026 
Q 2313 4219 1838 4219 
Q 1578 4219 1281 4162 
Q 984 4106 628 3988 
L 628 4550 
Q 988 4650 1302 4700 
Q 1616 4750 1894 4750 
Q 2613 4750 3031 4423 
Q 3450 4097 3450 3541 
Q 3450 3153 3228 2886 
Q 3006 2619 2597 2516 
z
" transform="scale(0.015625)"/>
       </defs>
       <use xlink:href="#DejaVuSans-33"/>
       <use xlink:href="#DejaVuSans-30" transform="translate(63.623047 0)"/>
      </g>
     </g>
    </g>
   </g>
   <g id="line2d_4">
    <path d="M 71.207668 119.544487 
L 74.255558 120.72827 
L 77.303449 120.484014 
L 80.253021 119.255434 
L 83.300911 119.409987 
L 89.298374 114.196593 
L 92.346264 121.982838 
L 95.197517 121.396285 
L 98.245407 120.646467 
L 101.194979 120.910831 
L 104.24287 120.421343 
L 107.192441 118.821068 
L 110.240332 119.434275 
L 113.288222 118.686318 
L 116.237794 118.181956 
L 119.285685 116.599787 
L 122.235256 111.723508 
L 125.283147 110.417071 
L 128.331037 119.803823 
L 131.083971 118.70308 
L 134.131862 118.833217 
L 140.129324 117.753244 
L 146.126786 115.998294 
L 152.124248 115.636459 
L 155.172139 114.177737 
L 158.12171 107.034215 
L 161.169601 108.56998 
L 164.217492 118.466903 
L 166.970425 116.573952 
L 170.018316 117.665398 
L 172.967887 116.072053 
L 178.965349 115.346231 
L 182.01324 113.2985 
L 185.061131 113.798963 
L 188.010702 113.466132 
L 194.008165 110.374179 
L 197.056055 108.508306 
L 200.103946 117.183507 
L 202.856879 114.672522 
L 205.90477 115.105028 
L 208.854341 113.832181 
L 211.902232 113.914251 
L 214.851804 113.619917 
L 217.899694 111.570345 
L 220.947585 112.818671 
L 223.897157 110.67997 
L 226.945047 110.771812 
L 229.894619 106.223901 
L 232.942509 103.098006 
L 235.9904 114.260077 
L 238.841652 113.600004 
L 241.889543 112.454334 
L 244.839115 110.697082 
L 247.887005 112.139179 
L 250.836577 109.407648 
L 253.884468 110.045528 
L 256.932358 109.473989 
L 259.88193 108.237287 
L 262.92982 108.852126 
L 265.879392 102.147811 
L 268.927283 102.430201 
L 271.975173 113.547401 
L 277.775997 110.340156 
L 280.725569 109.664197 
L 283.77346 108.788305 
L 286.723031 107.4764 
L 289.770922 108.660911 
L 292.818812 106.791002 
L 295.768384 104.843441 
L 298.816275 106.28724 
L 301.765846 97.048001 
L 304.813737 101.491797 
L 307.861627 111.35467 
L 310.614561 109.244501 
L 313.662452 108.760843 
L 316.612023 107.430618 
L 319.659914 106.337645 
L 322.609485 104.8648 
L 325.657376 106.171529 
L 328.705267 103.284066 
L 331.654838 103.33432 
L 334.702729 102.184731 
L 337.6523 95.463554 
L 340.700191 96.037206 
L 343.748082 109.631305 
L 346.501015 104.011724 
L 349.548906 106.63091 
L 352.498477 104.442171 
L 355.546368 103.660035 
L 358.495939 101.769483 
L 361.54383 100.558841 
L 367.541292 99.939305 
L 370.589183 97.606496 
L 373.538755 92.128156 
L 376.586645 88.777511 
L 379.634536 106.084872 
L 382.485788 102.201732 
L 385.533679 102.603028 
L 388.483251 99.477311 
L 391.531141 98.882862 
L 394.480713 94.520651 
L 397.528603 95.173132 
L 400.576494 97.692016 
L 403.526066 91.521824 
L 406.573956 92.788444 
L 409.523528 90.257944 
L 412.571418 81.976426 
L 415.619309 104.05742 
L 418.372242 96.306098 
L 421.420133 98.222112 
L 424.369705 94.465564 
L 427.417595 97.508619 
L 430.367167 92.434197 
L 433.415058 91.695787 
L 436.462948 95.161801 
L 439.41252 88.295806 
L 442.46041 84.795026 
L 445.409982 87.221941 
L 448.457873 75.803465 
L 451.505763 100.618693 
L 454.258697 97.369149 
L 457.306587 94.67661 
L 460.256159 90.163525 
L 463.30405 94.110397 
L 466.253621 87.636861 
L 469.301512 89.85604 
L 472.349402 87.601995 
L 475.298974 85.248616 
L 478.346865 86.119639 
L 481.296436 79.793988 
L 484.344327 73.995155 
L 487.392217 98.061661 
L 490.145151 94.579895 
L 493.193041 95.137274 
L 496.142613 88.774565 
L 499.190504 89.976884 
L 502.140075 87.111297 
L 505.187966 88.757604 
L 508.235857 86.18464 
L 511.185428 81.168151 
L 514.233319 84.812437 
L 517.18289 75.105946 
L 520.230781 69.970159 
L 523.278672 90.741121 
L 526.129924 87.111798 
L 529.177815 87.506466 
L 532.127386 83.873953 
L 535.175277 83.716348 
L 538.124849 79.094815 
L 541.172739 78.986379 
L 544.22063 76.345411 
L 547.170201 74.483446 
L 550.218092 71.227017 
L 553.167664 67.006224 
L 556.215554 60.467856 
L 559.263445 89.999682 
L 562.016378 85.726692 
L 565.064269 82.107722 
L 568.013841 80.957623 
L 571.061731 77.841002 
L 574.011303 77.415353 
L 577.059193 71.507903 
L 580.107084 69.637672 
L 583.056656 71.706626 
L 586.104546 65.36961 
L 589.054118 63.027294 
L 592.102008 51.194926 
L 595.149899 88.690107 
L 597.902832 78.656775 
L 600.950723 82.880588 
L 603.900295 70.725938 
L 606.948185 75.833144 
L 609.897757 73.474891 
L 612.945648 67.886737 
L 615.993538 74.697161 
L 618.94311 58.236857 
L 621.991 50.890769 
L 624.940572 51.717092 
L 627.988463 35.608536 
L 631.036353 74.215956 
L 633.789287 63.844118 
L 636.837177 75.368455 
L 639.786749 59.707594 
L 642.83464 60.802482 
L 645.784211 56.851213 
L 648.832102 49.676212 
L 651.879992 53.099996 
L 654.829564 51.959759 
L 657.877455 45.156718 
L 660.827026 43.252597 
L 663.874917 30.037278 
L 666.922807 57.469661 
L 669.77406 69.075808 
L 672.821951 52.492797 
L 675.771522 53.161109 
L 678.819413 65.080342 
L 678.819413 65.080342 
" clip-path="url(#pe23426aa24)" style="fill: none; stroke: #0000ff; stroke-width: 1.5; stroke-linecap: square"/>
   </g>
   <g id="patch_3">
    <path d="M 40.827081 126.580116 
L 40.827081 25.44 
" style="fill: none; stroke: #000000; stroke-width: 0.8; stroke-linejoin: miter; stroke-linecap: square"/>
   </g>
   <g id="patch_4">
    <path d="M 709.2 126.580116 
L 709.2 25.44 
" style="fill: none; stroke: #000000; stroke-width: 0.8; stroke-linejoin: miter; stroke-linecap: square"/>
   </g>
   <g id="patch_5">
    <path d="M 40.827081 126.580116 
L 709.2 126.580116 
" style="fill: none; stroke: #000000; stroke-width: 0.8; stroke-linejoin: miter; stroke-linecap: square"/>
   </g>
   <g id="patch_6">
    <path d="M 40.827081 25.44 
L 709.2 25.44 
" style="fill: none; stroke: #000000; stroke-width: 0.8; stroke-linejoin: miter; stroke-linecap: square"/>
   </g>
   <g id="text_4">
    <!-- observed -->
    <g transform="translate(347.196978 19.44) scale(0.12 -0.12)">
     <defs>
      <path id="DejaVuSans-6f" d="M 1959 3097 
Q 1497 3097 1228 2736 
Q 959 2375 959 1747 
Q 959 1119 1226 758 
Q 1494 397 1959 397 
Q 2419 397 2687 759 
Q 2956 1122 2956 1747 
Q 2956 2369 2687 2733 
Q 2419 3097 1959 3097 
z
M 1959 3584 
Q 2709 3584 3137 3096 
Q 3566 2609 3566 1747 
Q 3566 888 3137 398 
Q 2709 -91 1959 -91 
Q 1206 -91 779 398 
Q 353 888 353 1747 
Q 353 2609 779 3096 
Q 1206 3584 1959 3584 
z
" transform="scale(0.015625)"/>
      <path id="DejaVuSans-62" d="M 3116 1747 
Q 3116 2381 2855 2742 
Q 2594 3103 2138 3103 
Q 1681 3103 1420 2742 
Q 1159 2381 1159 1747 
Q 1159 1113 1420 752 
Q 1681 391 2138 391 
Q 2594 391 2855 752 
Q 3116 1113 3116 1747 
z
M 1159 2969 
Q 1341 3281 1617 3432 
Q 1894 3584 2278 3584 
Q 2916 3584 3314 3078 
Q 3713 2572 3713 1747 
Q 3713 922 3314 415 
Q 2916 -91 2278 -91 
Q 1894 -91 1617 61 
Q 1341 213 1159 525 
L 1159 0 
L 581 0 
L 581 4863 
L 1159 4863 
L 1159 2969 
z
" transform="scale(0.015625)"/>
      <path id="DejaVuSans-73" d="M 2834 3397 
L 2834 2853 
Q 2591 2978 2328 3040 
Q 2066 3103 1784 3103 
Q 1356 3103 1142 2972 
Q 928 2841 928 2578 
Q 928 2378 1081 2264 
Q 1234 2150 1697 2047 
L 1894 2003 
Q 2506 1872 2764 1633 
Q 3022 1394 3022 966 
Q 3022 478 2636 193 
Q 2250 -91 1575 -91 
Q 1294 -91 989 -36 
Q 684 19 347 128 
L 347 722 
Q 666 556 975 473 
Q 1284 391 1588 391 
Q 1994 391 2212 530 
Q 2431 669 2431 922 
Q 2431 1156 2273 1281 
Q 2116 1406 1581 1522 
L 1381 1569 
Q 847 1681 609 1914 
Q 372 2147 372 2553 
Q 372 3047 722 3315 
Q 1072 3584 1716 3584 
Q 2034 3584 2315 3537 
Q 2597 3491 2834 3397 
z
" transform="scale(0.015625)"/>
      <path id="DejaVuSans-65" d="M 3597 1894 
L 3597 1613 
L 953 1613 
Q 991 1019 1311 708 
Q 1631 397 2203 397 
Q 2534 397 2845 478 
Q 3156 559 3463 722 
L 3463 178 
Q 3153 47 2828 -22 
Q 2503 -91 2169 -91 
Q 1331 -91 842 396 
Q 353 884 353 1716 
Q 353 2575 817 3079 
Q 1281 3584 2069 3584 
Q 2775 3584 3186 3129 
Q 3597 2675 3597 1894 
z
M 3022 2063 
Q 3016 2534 2758 2815 
Q 2500 3097 2075 3097 
Q 1594 3097 1305 2825 
Q 1016 2553 972 2059 
L 3022 2063 
z
" transform="scale(0.015625)"/>
      <path id="DejaVuSans-72" d="M 2631 2963 
Q 2534 3019 2420 3045 
Q 2306 3072 2169 3072 
Q 1681 3072 1420 2755 
Q 1159 2438 1159 1844 
L 1159 0 
L 581 0 
L 581 3500 
L 1159 3500 
L 1159 2956 
Q 1341 3275 1631 3429 
Q 1922 3584 2338 3584 
Q 2397 3584 2469 3576 
Q 2541 3569 2628 3553 
L 2631 2963 
z
" transform="scale(0.015625)"/>
      <path id="DejaVuSans-76" d="M 191 3500 
L 800 3500 
L 1894 563 
L 2988 3500 
L 3597 3500 
L 2284 0 
L 1503 0 
L 191 3500 
z
" transform="scale(0.015625)"/>
      <path id="DejaVuSans-64" d="M 2906 2969 
L 2906 4863 
L 3481 4863 
L 3481 0 
L 2906 0 
L 2906 525 
Q 2725 213 2448 61 
Q 2172 -91 1784 -91 
Q 1150 -91 751 415 
Q 353 922 353 1747 
Q 353 2572 751 3078 
Q 1150 3584 1784 3584 
Q 2172 3584 2448 3432 
Q 2725 3281 2906 2969 
z
M 947 1747 
Q 947 1113 1208 752 
Q 1469 391 1925 391 
Q 2381 391 2643 752 
Q 2906 1113 2906 1747 
Q 2906 2381 2643 2742 
Q 2381 3103 1925 3103 
Q 1469 3103 1208 2742 
Q 947 2381 947 1747 
z
" transform="scale(0.015625)"/>
     </defs>
     <use xlink:href="#DejaVuSans-6f"/>
     <use xlink:href="#DejaVuSans-62" transform="translate(61.181641 0)"/>
     <use xlink:href="#DejaVuSans-73" transform="translate(124.658203 0)"/>
     <use xlink:href="#DejaVuSans-65" transform="translate(176.757812 0)"/>
     <use xlink:href="#DejaVuSans-72" transform="translate(238.28125 0)"/>
     <use xlink:href="#DejaVuSans-76" transform="translate(279.394531 0)"/>
     <use xlink:href="#DejaVuSans-65" transform="translate(338.574219 0)"/>
     <use xlink:href="#DejaVuSans-64" transform="translate(400.097656 0)"/>
    </g>
   </g>
  </g>
  <g id="axes_2">
   <g id="patch_7">
    <path d="M 40.827081 253.160232 
L 709.2 253.160232 
L 709.2 152.020116 
L 40.827081 152.020116 
z
" style="fill: #ffffff"/>
   </g>
   <g id="matplotlib.axis_3">
    <g id="xtick_18"/>
    <g id="xtick_19"/>
    <g id="xtick_20"/>
    <g id="xtick_21"/>
    <g id="xtick_22"/>
    <g id="xtick_23"/>
    <g id="xtick_24"/>
    <g id="xtick_25"/>
    <g id="xtick_26"/>
    <g id="xtick_27"/>
    <g id="xtick_28"/>
    <g id="xtick_29"/>
    <g id="xtick_30"/>
    <g id="xtick_31"/>
    <g id="xtick_32"/>
    <g id="xtick_33"/>
    <g id="xtick_34"/>
   </g>
   <g id="matplotlib.axis_4">
    <g id="ytick_4">
     <g id="line2d_5">
      <g>
       <use xlink:href="#m1cae5a1cd3" x="40.827081" y="240.809017" style="stroke: #000000; stroke-width: 0.8"/>
      </g>
     </g>
     <g id="text_5">
      <!-- 5 -->
      <g transform="translate(27.464581 244.608236) scale(0.1 -0.1)">
       <defs>
        <path id="DejaVuSans-35" d="M 691 4666 
L 3169 4666 
L 3169 4134 
L 1269 4134 
L 1269 2991 
Q 1406 3038 1543 3061 
Q 1681 3084 1819 3084 
Q 2600 3084 3056 2656 
Q 3513 2228 3513 1497 
Q 3513 744 3044 326 
Q 2575 -91 1722 -91 
Q 1428 -91 1123 -41 
Q 819 9 494 109 
L 494 744 
Q 775 591 1075 516 
Q 1375 441 1709 441 
Q 2250 441 2565 725 
Q 2881 1009 2881 1497 
Q 2881 1984 2565 2268 
Q 2250 2553 1709 2553 
Q 1456 2553 1204 2497 
Q 953 2441 691 2322 
L 691 4666 
z
" transform="scale(0.015625)"/>
       </defs>
       <use xlink:href="#DejaVuSans-35"/>
      </g>
     </g>
    </g>
    <g id="ytick_5">
     <g id="line2d_6">
      <g>
       <use xlink:href="#m1cae5a1cd3" x="40.827081" y="218.653173" style="stroke: #000000; stroke-width: 0.8"/>
      </g>
     </g>
     <g id="text_6">
      <!-- 10 -->
      <g transform="translate(21.102081 222.452391) scale(0.1 -0.1)">
       <use xlink:href="#DejaVuSans-31"/>
       <use xlink:href="#DejaVuSans-30" transform="translate(63.623047 0)"/>
      </g>
     </g>
    </g>
    <g id="ytick_6">
     <g id="line2d_7">
      <g>
       <use xlink:href="#m1cae5a1cd3" x="40.827081" y="196.497329" style="stroke: #000000; stroke-width: 0.8"/>
      </g>
     </g>
     <g id="text_7">
      <!-- 15 -->
      <g transform="translate(21.102081 200.296547) scale(0.1 -0.1)">
       <use xlink:href="#DejaVuSans-31"/>
       <use xlink:href="#DejaVuSans-35" transform="translate(63.623047 0)"/>
      </g>
     </g>
    </g>
    <g id="ytick_7">
     <g id="line2d_8">
      <g>
       <use xlink:href="#m1cae5a1cd3" x="40.827081" y="174.341484" style="stroke: #000000; stroke-width: 0.8"/>
      </g>
     </g>
     <g id="text_8">
      <!-- 20 -->
      <g transform="translate(21.102081 178.140703) scale(0.1 -0.1)">
       <use xlink:href="#DejaVuSans-32"/>
       <use xlink:href="#DejaVuSans-30" transform="translate(63.623047 0)"/>
      </g>
     </g>
    </g>
    <g id="ytick_8">
     <g id="line2d_9">
      <g>
       <use xlink:href="#m1cae5a1cd3" x="40.827081" y="152.18564" style="stroke: #000000; stroke-width: 0.8"/>
      </g>
     </g>
     <g id="text_9">
      <!-- 25 -->
      <g transform="translate(21.102081 155.984859) scale(0.1 -0.1)">
       <use xlink:href="#DejaVuSans-32"/>
       <use xlink:href="#DejaVuSans-35" transform="translate(63.623047 0)"/>
      </g>
     </g>
    </g>
   </g>
   <g id="line2d_10">
    <path d="M 71.207668 248.562954 
L 92.346264 247.178513 
L 107.192441 245.994846 
L 122.235256 244.527131 
L 134.131862 243.354556 
L 143.078895 242.488795 
L 164.217492 240.984715 
L 170.018316 240.641454 
L 191.058593 239.758689 
L 208.854341 238.489764 
L 217.899694 237.53762 
L 229.894619 236.310156 
L 250.836577 234.520343 
L 271.975173 232.994007 
L 298.816275 230.546553 
L 319.659914 228.542718 
L 334.702729 226.756893 
L 349.548906 224.81538 
L 367.541292 222.119763 
L 376.586645 220.527509 
L 388.483251 218.416898 
L 406.573956 215.580825 
L 418.372242 214.078763 
L 448.457873 210.136407 
L 460.256159 208.607213 
L 469.301512 207.770131 
L 484.344327 206.562434 
L 493.193041 205.931975 
L 499.190504 205.254637 
L 505.187966 204.16554 
L 511.185428 202.77859 
L 517.18289 201.185645 
L 523.278672 199.473422 
L 532.127386 196.807519 
L 538.124849 195.281696 
L 544.22063 194.058435 
L 574.011303 188.957592 
L 580.107084 187.964565 
L 589.054118 186.397403 
L 595.149899 185.369007 
L 600.950723 183.907535 
L 603.900295 182.951123 
L 606.948185 181.831698 
L 615.993538 177.952644 
L 621.991 175.046167 
L 633.789287 168.914686 
L 639.786749 166.400091 
L 645.784211 164.469957 
L 654.829564 162.125693 
L 669.77406 158.624267 
L 678.819413 156.617394 
L 678.819413 156.617394 
" clip-path="url(#p097cb86e9c)" style="fill: none; stroke: #0000ff; stroke-width: 1.5; stroke-linecap: square"/>
   </g>
   <g id="patch_8">
    <path d="M 40.827081 253.160232 
L 40.827081 152.020116 
" style="fill: none; stroke: #000000; stroke-width: 0.8; stroke-linejoin: miter; stroke-linecap: square"/>
   </g>
   <g id="patch_9">
    <path d="M 709.2 253.160232 
L 709.2 152.020116 
" style="fill: none; stroke: #000000; stroke-width: 0.8; stroke-linejoin: miter; stroke-linecap: square"/>
   </g>
   <g id="patch_10">
    <path d="M 40.827081 253.160232 
L 709.2 253.160232 
" style="fill: none; stroke: #000000; stroke-width: 0.8; stroke-linejoin: miter; stroke-linecap: square"/>
   </g>
   <g id="patch_11">
    <path d="M 40.827081 152.020116 
L 709.2 152.020116 
" style="fill: none; stroke: #000000; stroke-width: 0.8; stroke-linejoin: miter; stroke-linecap: square"/>
   </g>
   <g id="text_10">
    <!-- Trend -->
    <g transform="translate(358.598853 146.020116) scale(0.12 -0.12)">
     <defs>
      <path id="DejaVuSans-54" d="M -19 4666 
L 3928 4666 
L 3928 4134 
L 2272 4134 
L 2272 0 
L 1638 0 
L 1638 4134 
L -19 4134 
L -19 4666 
z
" transform="scale(0.015625)"/>
      <path id="DejaVuSans-6e" d="M 3513 2113 
L 3513 0 
L 2938 0 
L 2938 2094 
Q 2938 2591 2744 2837 
Q 2550 3084 2163 3084 
Q 1697 3084 1428 2787 
Q 1159 2491 1159 1978 
L 1159 0 
L 581 0 
L 581 3500 
L 1159 3500 
L 1159 2956 
Q 1366 3272 1645 3428 
Q 1925 3584 2291 3584 
Q 2894 3584 3203 3211 
Q 3513 2838 3513 2113 
z
" transform="scale(0.015625)"/>
     </defs>
     <use xlink:href="#DejaVuSans-54"/>
     <use xlink:href="#DejaVuSans-72" transform="translate(46.333984 0)"/>
     <use xlink:href="#DejaVuSans-65" transform="translate(85.197266 0)"/>
     <use xlink:href="#DejaVuSans-6e" transform="translate(146.720703 0)"/>
     <use xlink:href="#DejaVuSans-64" transform="translate(210.099609 0)"/>
    </g>
   </g>
  </g>
  <g id="axes_3">
   <g id="patch_12">
    <path d="M 40.827081 379.740348 
L 709.2 379.740348 
L 709.2 278.600232 
L 40.827081 278.600232 
z
" style="fill: #ffffff"/>
   </g>
   <g id="matplotlib.axis_5">
    <g id="xtick_35"/>
    <g id="xtick_36"/>
    <g id="xtick_37"/>
    <g id="xtick_38"/>
    <g id="xtick_39"/>
    <g id="xtick_40"/>
    <g id="xtick_41"/>
    <g id="xtick_42"/>
    <g id="xtick_43"/>
    <g id="xtick_44"/>
    <g id="xtick_45"/>
    <g id="xtick_46"/>
    <g id="xtick_47"/>
    <g id="xtick_48"/>
    <g id="xtick_49"/>
    <g id="xtick_50"/>
    <g id="xtick_51"/>
   </g>
   <g id="matplotlib.axis_6">
    <g id="ytick_9">
     <g id="line2d_11">
      <g>
       <use xlink:href="#m1cae5a1cd3" x="40.827081" y="363.442678" style="stroke: #000000; stroke-width: 0.8"/>
      </g>
     </g>
     <g id="text_11">
      <!-- −2.5 -->
      <g transform="translate(9.544268 367.241897) scale(0.1 -0.1)">
       <defs>
        <path id="DejaVuSans-2212" d="M 678 2272 
L 4684 2272 
L 4684 1741 
L 678 1741 
L 678 2272 
z
" transform="scale(0.015625)"/>
        <path id="DejaVuSans-2e" d="M 684 794 
L 1344 794 
L 1344 0 
L 684 0 
L 684 794 
z
" transform="scale(0.015625)"/>
       </defs>
       <use xlink:href="#DejaVuSans-2212"/>
       <use xlink:href="#DejaVuSans-32" transform="translate(83.789062 0)"/>
       <use xlink:href="#DejaVuSans-2e" transform="translate(147.412109 0)"/>
       <use xlink:href="#DejaVuSans-35" transform="translate(179.199219 0)"/>
      </g>
     </g>
    </g>
    <g id="ytick_10">
     <g id="line2d_12">
      <g>
       <use xlink:href="#m1cae5a1cd3" x="40.827081" y="342.70257" style="stroke: #000000; stroke-width: 0.8"/>
      </g>
     </g>
     <g id="text_12">
      <!-- 0.0 -->
      <g transform="translate(17.923956 346.501788) scale(0.1 -0.1)">
       <use xlink:href="#DejaVuSans-30"/>
       <use xlink:href="#DejaVuSans-2e" transform="translate(63.623047 0)"/>
       <use xlink:href="#DejaVuSans-30" transform="translate(95.410156 0)"/>
      </g>
     </g>
    </g>
    <g id="ytick_11">
     <g id="line2d_13">
      <g>
       <use xlink:href="#m1cae5a1cd3" x="40.827081" y="321.962461" style="stroke: #000000; stroke-width: 0.8"/>
      </g>
     </g>
     <g id="text_13">
      <!-- 2.5 -->
      <g transform="translate(17.923956 325.76168) scale(0.1 -0.1)">
       <use xlink:href="#DejaVuSans-32"/>
       <use xlink:href="#DejaVuSans-2e" transform="translate(63.623047 0)"/>
       <use xlink:href="#DejaVuSans-35" transform="translate(95.410156 0)"/>
      </g>
     </g>
    </g>
    <g id="ytick_12">
     <g id="line2d_14">
      <g>
       <use xlink:href="#m1cae5a1cd3" x="40.827081" y="301.222353" style="stroke: #000000; stroke-width: 0.8"/>
      </g>
     </g>
     <g id="text_14">
      <!-- 5.0 -->
      <g transform="translate(17.923956 305.021572) scale(0.1 -0.1)">
       <use xlink:href="#DejaVuSans-35"/>
       <use xlink:href="#DejaVuSans-2e" transform="translate(63.623047 0)"/>
       <use xlink:href="#DejaVuSans-30" transform="translate(95.410156 0)"/>
      </g>
     </g>
    </g>
    <g id="ytick_13">
     <g id="line2d_15">
      <g>
       <use xlink:href="#m1cae5a1cd3" x="40.827081" y="280.482245" style="stroke: #000000; stroke-width: 0.8"/>
      </g>
     </g>
     <g id="text_15">
      <!-- 7.5 -->
      <g transform="translate(17.923956 284.281463) scale(0.1 -0.1)">
       <defs>
        <path id="DejaVuSans-37" d="M 525 4666 
L 3525 4666 
L 3525 4397 
L 1831 0 
L 1172 0 
L 2766 4134 
L 525 4134 
L 525 4666 
z
" transform="scale(0.015625)"/>
       </defs>
       <use xlink:href="#DejaVuSans-37"/>
       <use xlink:href="#DejaVuSans-2e" transform="translate(63.623047 0)"/>
       <use xlink:href="#DejaVuSans-35" transform="translate(95.410156 0)"/>
      </g>
     </g>
    </g>
   </g>
   <g id="line2d_16">
    <path d="M 71.207668 341.522896 
L 74.255558 344.649516 
L 77.303449 343.641612 
L 83.300911 340.960204 
L 86.250483 332.061073 
L 89.298374 328.629107 
L 92.346264 349.032008 
L 95.197517 347.34814 
L 101.194979 347.850523 
L 104.24287 346.671331 
L 107.192441 342.861535 
L 110.240332 343.911532 
L 113.288222 343.628537 
L 116.237794 342.306294 
L 119.285685 340.589521 
L 122.235256 331.117485 
L 125.283147 328.289905 
L 128.331037 350.040117 
L 131.083971 347.592638 
L 134.131862 348.060316 
L 137.081433 347.184932 
L 140.129324 346.678328 
L 143.078895 344.049952 
L 146.126786 343.242927 
L 149.174677 343.665064 
L 152.124248 342.235568 
L 155.172139 340.334422 
L 158.12171 330.300054 
L 161.169601 327.842095 
L 164.217492 351.0052 
L 166.970425 347.968806 
L 170.018316 348.461266 
L 172.967887 346.54905 
L 176.015778 346.729836 
L 178.965349 345.044806 
L 182.01324 342.55589 
L 185.061131 343.693504 
L 191.058593 340.255543 
L 194.008165 329.602729 
L 197.056055 327.512371 
L 200.103946 352.039568 
L 202.856879 348.512352 
L 205.90477 348.821453 
L 208.854341 345.96729 
L 211.902232 346.778431 
L 214.851804 344.525535 
L 217.899694 342.725156 
L 220.947585 343.482323 
L 223.897157 340.930922 
L 226.945047 340.807275 
L 229.894619 329.035075 
L 232.942509 327.774684 
L 235.9904 353.074909 
L 238.841652 349.613634 
L 241.889543 348.628436 
L 244.839115 345.951721 
L 247.887005 346.580826 
L 250.836577 343.716636 
L 253.884468 343.929151 
L 256.932358 343.056764 
L 259.88193 340.080497 
L 262.92982 341.280475 
L 265.879392 326.557989 
L 268.927283 327.756746 
L 271.975173 354.451206 
L 274.728107 350.236864 
L 277.775997 349.299933 
L 280.725569 346.608527 
L 283.77346 346.59029 
L 286.723031 343.088054 
L 289.770922 344.887458 
L 292.818812 342.217288 
L 295.768384 340.115041 
L 298.816275 340.819323 
L 301.765846 324.207368 
L 304.813737 326.855603 
L 307.861627 356.571412 
L 310.614561 350.202484 
L 313.662452 350.876957 
L 316.612023 347.624721 
L 319.659914 346.685254 
L 322.609485 342.606697 
L 325.657376 344.47641 
L 328.705267 342.22687 
L 331.654838 339.783777 
L 334.702729 339.586372 
L 337.6523 324.237127 
L 340.700191 324.091501 
L 343.748082 359.194388 
L 346.501015 350.051062 
L 349.548906 352.607006 
L 352.498477 347.985418 
L 355.546368 347.671312 
L 358.495939 341.947579 
L 361.54383 343.203708 
L 364.591721 343.886092 
L 367.541292 338.552268 
L 370.589183 337.292265 
L 373.538755 326.872059 
L 376.586645 318.853049 
L 379.634536 362.250723 
L 382.485788 350.736422 
L 385.533679 353.85509 
L 388.483251 347.364752 
L 391.531141 349.83774 
L 394.480713 341.337427 
L 397.528603 342.21845 
L 400.576494 345.429767 
L 403.526066 336.930769 
L 406.573956 334.893736 
L 409.523528 328.845271 
L 412.571418 313.412963 
L 415.619309 364.834211 
L 418.372242 353.56675 
L 421.420133 355.001913 
L 424.369705 346.325579 
L 427.417595 351.382443 
L 430.367167 340.726889 
L 433.415058 342.862992 
L 436.462948 345.490735 
L 439.41252 334.908395 
L 442.46041 334.880381 
L 445.409982 328.143278 
L 448.457873 310.149347 
L 451.505763 366.055725 
L 454.258697 355.74817 
L 457.306587 356.359712 
L 460.256159 346.063152 
L 463.30405 352.046637 
L 466.253621 341.235355 
L 469.301512 344.293144 
L 472.349402 344.086024 
L 475.298974 333.971332 
L 478.346865 335.045506 
L 481.296436 325.366149 
L 484.344327 308.350083 
L 487.392217 366.816693 
L 490.145151 358.112974 
L 493.193041 357.566813 
L 496.142613 347.794629 
L 499.190504 351.865995 
L 502.140075 342.546103 
L 505.187966 344.292647 
L 508.235857 340.759634 
L 511.185428 334.408145 
L 514.233319 334.006145 
L 517.18289 321.673568 
L 520.230781 305.777746 
L 523.278672 369.622437 
L 526.129924 360.090348 
L 529.177815 359.889581 
L 532.127386 349.732195 
L 535.175277 351.729821 
L 538.124849 345.45426 
L 544.22063 340.742841 
L 547.170201 334.252989 
L 550.218092 329.96539 
L 553.167664 319.453016 
L 556.215554 300.325616 
L 559.263445 373.561875 
L 562.016378 360.100009 
L 565.064269 364.776564 
L 568.013841 350.255858 
L 571.061731 353.167437 
L 574.011303 347.738083 
L 577.059193 340.499173 
L 580.107084 343.853503 
L 583.056656 334.091117 
L 586.104546 324.83777 
L 589.054118 319.027175 
L 592.102008 294.222847 
L 595.149899 372.639064 
L 597.902832 364.174375 
L 600.950723 366.014081 
L 603.900295 350.141971 
L 606.948185 358.584288 
L 609.897757 349.573044 
L 612.945648 337.300925 
L 615.993538 345.707442 
L 618.94311 334.635342 
L 621.991 320.59661 
L 624.940572 318.873167 
L 627.988463 288.697844 
L 631.036353 370.5758 
L 633.789287 369.597466 
L 636.837177 365.364654 
L 639.786749 349.746471 
L 642.83464 365.270968 
L 645.784211 351.316004 
L 648.832102 334.174505 
L 651.879992 348.148006 
L 654.829564 334.966724 
L 657.877455 316.523522 
L 660.827026 318.780108 
L 663.874917 283.19751 
L 666.922807 367.684319 
L 669.77406 375.14307 
L 672.821951 364.484542 
L 675.771522 349.328534 
L 678.819413 372.260308 
L 678.819413 372.260308 
" clip-path="url(#p49810fbc20)" style="fill: none; stroke: #0000ff; stroke-width: 1.5; stroke-linecap: square"/>
   </g>
   <g id="patch_13">
    <path d="M 40.827081 379.740348 
L 40.827081 278.600232 
" style="fill: none; stroke: #000000; stroke-width: 0.8; stroke-linejoin: miter; stroke-linecap: square"/>
   </g>
   <g id="patch_14">
    <path d="M 709.2 379.740348 
L 709.2 278.600232 
" style="fill: none; stroke: #000000; stroke-width: 0.8; stroke-linejoin: miter; stroke-linecap: square"/>
   </g>
   <g id="patch_15">
    <path d="M 40.827081 379.740348 
L 709.2 379.740348 
" style="fill: none; stroke: #000000; stroke-width: 0.8; stroke-linejoin: miter; stroke-linecap: square"/>
   </g>
   <g id="patch_16">
    <path d="M 40.827081 278.600232 
L 709.2 278.600232 
" style="fill: none; stroke: #000000; stroke-width: 0.8; stroke-linejoin: miter; stroke-linecap: square"/>
   </g>
   <g id="text_16">
    <!-- Seasonal -->
    <g transform="translate(347.892603 272.600232) scale(0.12 -0.12)">
     <defs>
      <path id="DejaVuSans-53" d="M 3425 4513 
L 3425 3897 
Q 3066 4069 2747 4153 
Q 2428 4238 2131 4238 
Q 1616 4238 1336 4038 
Q 1056 3838 1056 3469 
Q 1056 3159 1242 3001 
Q 1428 2844 1947 2747 
L 2328 2669 
Q 3034 2534 3370 2195 
Q 3706 1856 3706 1288 
Q 3706 609 3251 259 
Q 2797 -91 1919 -91 
Q 1588 -91 1214 -16 
Q 841 59 441 206 
L 441 856 
Q 825 641 1194 531 
Q 1563 422 1919 422 
Q 2459 422 2753 634 
Q 3047 847 3047 1241 
Q 3047 1584 2836 1778 
Q 2625 1972 2144 2069 
L 1759 2144 
Q 1053 2284 737 2584 
Q 422 2884 422 3419 
Q 422 4038 858 4394 
Q 1294 4750 2059 4750 
Q 2388 4750 2728 4690 
Q 3069 4631 3425 4513 
z
" transform="scale(0.015625)"/>
      <path id="DejaVuSans-61" d="M 2194 1759 
Q 1497 1759 1228 1600 
Q 959 1441 959 1056 
Q 959 750 1161 570 
Q 1363 391 1709 391 
Q 2188 391 2477 730 
Q 2766 1069 2766 1631 
L 2766 1759 
L 2194 1759 
z
M 3341 1997 
L 3341 0 
L 2766 0 
L 2766 531 
Q 2569 213 2275 61 
Q 1981 -91 1556 -91 
Q 1019 -91 701 211 
Q 384 513 384 1019 
Q 384 1609 779 1909 
Q 1175 2209 1959 2209 
L 2766 2209 
L 2766 2266 
Q 2766 2663 2505 2880 
Q 2244 3097 1772 3097 
Q 1472 3097 1187 3025 
Q 903 2953 641 2809 
L 641 3341 
Q 956 3463 1253 3523 
Q 1550 3584 1831 3584 
Q 2591 3584 2966 3190 
Q 3341 2797 3341 1997 
z
" transform="scale(0.015625)"/>
      <path id="DejaVuSans-6c" d="M 603 4863 
L 1178 4863 
L 1178 0 
L 603 0 
L 603 4863 
z
" transform="scale(0.015625)"/>
     </defs>
     <use xlink:href="#DejaVuSans-53"/>
     <use xlink:href="#DejaVuSans-65" transform="translate(63.476562 0)"/>
     <use xlink:href="#DejaVuSans-61" transform="translate(125 0)"/>
     <use xlink:href="#DejaVuSans-73" transform="translate(186.279297 0)"/>
     <use xlink:href="#DejaVuSans-6f" transform="translate(238.378906 0)"/>
     <use xlink:href="#DejaVuSans-6e" transform="translate(299.560547 0)"/>
     <use xlink:href="#DejaVuSans-61" transform="translate(362.939453 0)"/>
     <use xlink:href="#DejaVuSans-6c" transform="translate(424.21875 0)"/>
    </g>
   </g>
  </g>
  <g id="axes_4">
   <g id="patch_17">
    <path d="M 40.827081 506.320464 
L 709.2 506.320464 
L 709.2 405.180348 
L 40.827081 405.180348 
z
" style="fill: #ffffff"/>
   </g>
   <g id="matplotlib.axis_7">
    <g id="xtick_52">
     <g id="line2d_17">
      <defs>
       <path id="m839716772c" d="M 0 0 
L 0 3.5 
" style="stroke: #000000; stroke-width: 0.8"/>
      </defs>
      <g>
       <use xlink:href="#m839716772c" x="71.207668" y="506.320464" style="stroke: #000000; stroke-width: 0.8"/>
      </g>
     </g>
     <g id="text_17">
      <!-- 1991-07-01 -->
      <g transform="translate(19.838217 548.958716) rotate(-30) scale(0.1 -0.1)">
       <defs>
        <path id="DejaVuSans-39" d="M 703 97 
L 703 672 
Q 941 559 1184 500 
Q 1428 441 1663 441 
Q 2288 441 2617 861 
Q 2947 1281 2994 2138 
Q 2813 1869 2534 1725 
Q 2256 1581 1919 1581 
Q 1219 1581 811 2004 
Q 403 2428 403 3163 
Q 403 3881 828 4315 
Q 1253 4750 1959 4750 
Q 2769 4750 3195 4129 
Q 3622 3509 3622 2328 
Q 3622 1225 3098 567 
Q 2575 -91 1691 -91 
Q 1453 -91 1209 -44 
Q 966 3 703 97 
z
M 1959 2075 
Q 2384 2075 2632 2365 
Q 2881 2656 2881 3163 
Q 2881 3666 2632 3958 
Q 2384 4250 1959 4250 
Q 1534 4250 1286 3958 
Q 1038 3666 1038 3163 
Q 1038 2656 1286 2365 
Q 1534 2075 1959 2075 
z
" transform="scale(0.015625)"/>
        <path id="DejaVuSans-2d" d="M 313 2009 
L 1997 2009 
L 1997 1497 
L 313 1497 
L 313 2009 
z
" transform="scale(0.015625)"/>
       </defs>
       <use xlink:href="#DejaVuSans-31"/>
       <use xlink:href="#DejaVuSans-39" transform="translate(63.623047 0)"/>
       <use xlink:href="#DejaVuSans-39" transform="translate(127.246094 0)"/>
       <use xlink:href="#DejaVuSans-31" transform="translate(190.869141 0)"/>
       <use xlink:href="#DejaVuSans-2d" transform="translate(254.492188 0)"/>
       <use xlink:href="#DejaVuSans-30" transform="translate(290.576172 0)"/>
       <use xlink:href="#DejaVuSans-37" transform="translate(354.199219 0)"/>
       <use xlink:href="#DejaVuSans-2d" transform="translate(417.822266 0)"/>
       <use xlink:href="#DejaVuSans-30" transform="translate(453.90625 0)"/>
       <use xlink:href="#DejaVuSans-31" transform="translate(517.529297 0)"/>
      </g>
     </g>
    </g>
    <g id="xtick_53">
     <g id="line2d_18">
      <g>
       <use xlink:href="#m839716772c" x="107.192441" y="506.320464" style="stroke: #000000; stroke-width: 0.8"/>
      </g>
     </g>
     <g id="text_18">
      <!-- 1992-07-01 -->
      <g transform="translate(55.82299 548.958716) rotate(-30) scale(0.1 -0.1)">
       <use xlink:href="#DejaVuSans-31"/>
       <use xlink:href="#DejaVuSans-39" transform="translate(63.623047 0)"/>
       <use xlink:href="#DejaVuSans-39" transform="translate(127.246094 0)"/>
       <use xlink:href="#DejaVuSans-32" transform="translate(190.869141 0)"/>
       <use xlink:href="#DejaVuSans-2d" transform="translate(254.492188 0)"/>
       <use xlink:href="#DejaVuSans-30" transform="translate(290.576172 0)"/>
       <use xlink:href="#DejaVuSans-37" transform="translate(354.199219 0)"/>
       <use xlink:href="#DejaVuSans-2d" transform="translate(417.822266 0)"/>
       <use xlink:href="#DejaVuSans-30" transform="translate(453.90625 0)"/>
       <use xlink:href="#DejaVuSans-31" transform="translate(517.529297 0)"/>
      </g>
     </g>
    </g>
    <g id="xtick_54">
     <g id="line2d_19">
      <g>
       <use xlink:href="#m839716772c" x="143.078895" y="506.320464" style="stroke: #000000; stroke-width: 0.8"/>
      </g>
     </g>
     <g id="text_19">
      <!-- 1993-07-01 -->
      <g transform="translate(91.709444 548.958716) rotate(-30) scale(0.1 -0.1)">
       <use xlink:href="#DejaVuSans-31"/>
       <use xlink:href="#DejaVuSans-39" transform="translate(63.623047 0)"/>
       <use xlink:href="#DejaVuSans-39" transform="translate(127.246094 0)"/>
       <use xlink:href="#DejaVuSans-33" transform="translate(190.869141 0)"/>
       <use xlink:href="#DejaVuSans-2d" transform="translate(254.492188 0)"/>
       <use xlink:href="#DejaVuSans-30" transform="translate(290.576172 0)"/>
       <use xlink:href="#DejaVuSans-37" transform="translate(354.199219 0)"/>
       <use xlink:href="#DejaVuSans-2d" transform="translate(417.822266 0)"/>
       <use xlink:href="#DejaVuSans-30" transform="translate(453.90625 0)"/>
       <use xlink:href="#DejaVuSans-31" transform="translate(517.529297 0)"/>
      </g>
     </g>
    </g>
    <g id="xtick_55">
     <g id="line2d_20">
      <g>
       <use xlink:href="#m839716772c" x="178.965349" y="506.320464" style="stroke: #000000; stroke-width: 0.8"/>
      </g>
     </g>
     <g id="text_20">
      <!-- 1994-07-01 -->
      <g transform="translate(127.595898 548.958716) rotate(-30) scale(0.1 -0.1)">
       <defs>
        <path id="DejaVuSans-34" d="M 2419 4116 
L 825 1625 
L 2419 1625 
L 2419 4116 
z
M 2253 4666 
L 3047 4666 
L 3047 1625 
L 3713 1625 
L 3713 1100 
L 3047 1100 
L 3047 0 
L 2419 0 
L 2419 1100 
L 313 1100 
L 313 1709 
L 2253 4666 
z
" transform="scale(0.015625)"/>
       </defs>
       <use xlink:href="#DejaVuSans-31"/>
       <use xlink:href="#DejaVuSans-39" transform="translate(63.623047 0)"/>
       <use xlink:href="#DejaVuSans-39" transform="translate(127.246094 0)"/>
       <use xlink:href="#DejaVuSans-34" transform="translate(190.869141 0)"/>
       <use xlink:href="#DejaVuSans-2d" transform="translate(254.492188 0)"/>
       <use xlink:href="#DejaVuSans-30" transform="translate(290.576172 0)"/>
       <use xlink:href="#DejaVuSans-37" transform="translate(354.199219 0)"/>
       <use xlink:href="#DejaVuSans-2d" transform="translate(417.822266 0)"/>
       <use xlink:href="#DejaVuSans-30" transform="translate(453.90625 0)"/>
       <use xlink:href="#DejaVuSans-31" transform="translate(517.529297 0)"/>
      </g>
     </g>
    </g>
    <g id="xtick_56">
     <g id="line2d_21">
      <g>
       <use xlink:href="#m839716772c" x="214.851804" y="506.320464" style="stroke: #000000; stroke-width: 0.8"/>
      </g>
     </g>
     <g id="text_21">
      <!-- 1995-07-01 -->
      <g transform="translate(163.482352 548.958716) rotate(-30) scale(0.1 -0.1)">
       <use xlink:href="#DejaVuSans-31"/>
       <use xlink:href="#DejaVuSans-39" transform="translate(63.623047 0)"/>
       <use xlink:href="#DejaVuSans-39" transform="translate(127.246094 0)"/>
       <use xlink:href="#DejaVuSans-35" transform="translate(190.869141 0)"/>
       <use xlink:href="#DejaVuSans-2d" transform="translate(254.492188 0)"/>
       <use xlink:href="#DejaVuSans-30" transform="translate(290.576172 0)"/>
       <use xlink:href="#DejaVuSans-37" transform="translate(354.199219 0)"/>
       <use xlink:href="#DejaVuSans-2d" transform="translate(417.822266 0)"/>
       <use xlink:href="#DejaVuSans-30" transform="translate(453.90625 0)"/>
       <use xlink:href="#DejaVuSans-31" transform="translate(517.529297 0)"/>
      </g>
     </g>
    </g>
    <g id="xtick_57">
     <g id="line2d_22">
      <g>
       <use xlink:href="#m839716772c" x="250.836577" y="506.320464" style="stroke: #000000; stroke-width: 0.8"/>
      </g>
     </g>
     <g id="text_22">
      <!-- 1996-07-01 -->
      <g transform="translate(199.467126 548.958716) rotate(-30) scale(0.1 -0.1)">
       <defs>
        <path id="DejaVuSans-36" d="M 2113 2584 
Q 1688 2584 1439 2293 
Q 1191 2003 1191 1497 
Q 1191 994 1439 701 
Q 1688 409 2113 409 
Q 2538 409 2786 701 
Q 3034 994 3034 1497 
Q 3034 2003 2786 2293 
Q 2538 2584 2113 2584 
z
M 3366 4563 
L 3366 3988 
Q 3128 4100 2886 4159 
Q 2644 4219 2406 4219 
Q 1781 4219 1451 3797 
Q 1122 3375 1075 2522 
Q 1259 2794 1537 2939 
Q 1816 3084 2150 3084 
Q 2853 3084 3261 2657 
Q 3669 2231 3669 1497 
Q 3669 778 3244 343 
Q 2819 -91 2113 -91 
Q 1303 -91 875 529 
Q 447 1150 447 2328 
Q 447 3434 972 4092 
Q 1497 4750 2381 4750 
Q 2619 4750 2861 4703 
Q 3103 4656 3366 4563 
z
" transform="scale(0.015625)"/>
       </defs>
       <use xlink:href="#DejaVuSans-31"/>
       <use xlink:href="#DejaVuSans-39" transform="translate(63.623047 0)"/>
       <use xlink:href="#DejaVuSans-39" transform="translate(127.246094 0)"/>
       <use xlink:href="#DejaVuSans-36" transform="translate(190.869141 0)"/>
       <use xlink:href="#DejaVuSans-2d" transform="translate(254.492188 0)"/>
       <use xlink:href="#DejaVuSans-30" transform="translate(290.576172 0)"/>
       <use xlink:href="#DejaVuSans-37" transform="translate(354.199219 0)"/>
       <use xlink:href="#DejaVuSans-2d" transform="translate(417.822266 0)"/>
       <use xlink:href="#DejaVuSans-30" transform="translate(453.90625 0)"/>
       <use xlink:href="#DejaVuSans-31" transform="translate(517.529297 0)"/>
      </g>
     </g>
    </g>
    <g id="xtick_58">
     <g id="line2d_23">
      <g>
       <use xlink:href="#m839716772c" x="286.723031" y="506.320464" style="stroke: #000000; stroke-width: 0.8"/>
      </g>
     </g>
     <g id="text_23">
      <!-- 1997-07-01 -->
      <g transform="translate(235.35358 548.958716) rotate(-30) scale(0.1 -0.1)">
       <use xlink:href="#DejaVuSans-31"/>
       <use xlink:href="#DejaVuSans-39" transform="translate(63.623047 0)"/>
       <use xlink:href="#DejaVuSans-39" transform="translate(127.246094 0)"/>
       <use xlink:href="#DejaVuSans-37" transform="translate(190.869141 0)"/>
       <use xlink:href="#DejaVuSans-2d" transform="translate(254.492188 0)"/>
       <use xlink:href="#DejaVuSans-30" transform="translate(290.576172 0)"/>
       <use xlink:href="#DejaVuSans-37" transform="translate(354.199219 0)"/>
       <use xlink:href="#DejaVuSans-2d" transform="translate(417.822266 0)"/>
       <use xlink:href="#DejaVuSans-30" transform="translate(453.90625 0)"/>
       <use xlink:href="#DejaVuSans-31" transform="translate(517.529297 0)"/>
      </g>
     </g>
    </g>
    <g id="xtick_59">
     <g id="line2d_24">
      <g>
       <use xlink:href="#m839716772c" x="322.609485" y="506.320464" style="stroke: #000000; stroke-width: 0.8"/>
      </g>
     </g>
     <g id="text_24">
      <!-- 1998-07-01 -->
      <g transform="translate(271.240034 548.958716) rotate(-30) scale(0.1 -0.1)">
       <defs>
        <path id="DejaVuSans-38" d="M 2034 2216 
Q 1584 2216 1326 1975 
Q 1069 1734 1069 1313 
Q 1069 891 1326 650 
Q 1584 409 2034 409 
Q 2484 409 2743 651 
Q 3003 894 3003 1313 
Q 3003 1734 2745 1975 
Q 2488 2216 2034 2216 
z
M 1403 2484 
Q 997 2584 770 2862 
Q 544 3141 544 3541 
Q 544 4100 942 4425 
Q 1341 4750 2034 4750 
Q 2731 4750 3128 4425 
Q 3525 4100 3525 3541 
Q 3525 3141 3298 2862 
Q 3072 2584 2669 2484 
Q 3125 2378 3379 2068 
Q 3634 1759 3634 1313 
Q 3634 634 3220 271 
Q 2806 -91 2034 -91 
Q 1263 -91 848 271 
Q 434 634 434 1313 
Q 434 1759 690 2068 
Q 947 2378 1403 2484 
z
M 1172 3481 
Q 1172 3119 1398 2916 
Q 1625 2713 2034 2713 
Q 2441 2713 2670 2916 
Q 2900 3119 2900 3481 
Q 2900 3844 2670 4047 
Q 2441 4250 2034 4250 
Q 1625 4250 1398 4047 
Q 1172 3844 1172 3481 
z
" transform="scale(0.015625)"/>
       </defs>
       <use xlink:href="#DejaVuSans-31"/>
       <use xlink:href="#DejaVuSans-39" transform="translate(63.623047 0)"/>
       <use xlink:href="#DejaVuSans-39" transform="translate(127.246094 0)"/>
       <use xlink:href="#DejaVuSans-38" transform="translate(190.869141 0)"/>
       <use xlink:href="#DejaVuSans-2d" transform="translate(254.492188 0)"/>
       <use xlink:href="#DejaVuSans-30" transform="translate(290.576172 0)"/>
       <use xlink:href="#DejaVuSans-37" transform="translate(354.199219 0)"/>
       <use xlink:href="#DejaVuSans-2d" transform="translate(417.822266 0)"/>
       <use xlink:href="#DejaVuSans-30" transform="translate(453.90625 0)"/>
       <use xlink:href="#DejaVuSans-31" transform="translate(517.529297 0)"/>
      </g>
     </g>
    </g>
    <g id="xtick_60">
     <g id="line2d_25">
      <g>
       <use xlink:href="#m839716772c" x="358.495939" y="506.320464" style="stroke: #000000; stroke-width: 0.8"/>
      </g>
     </g>
     <g id="text_25">
      <!-- 1999-07-01 -->
      <g transform="translate(307.126488 548.958716) rotate(-30) scale(0.1 -0.1)">
       <use xlink:href="#DejaVuSans-31"/>
       <use xlink:href="#DejaVuSans-39" transform="translate(63.623047 0)"/>
       <use xlink:href="#DejaVuSans-39" transform="translate(127.246094 0)"/>
       <use xlink:href="#DejaVuSans-39" transform="translate(190.869141 0)"/>
       <use xlink:href="#DejaVuSans-2d" transform="translate(254.492188 0)"/>
       <use xlink:href="#DejaVuSans-30" transform="translate(290.576172 0)"/>
       <use xlink:href="#DejaVuSans-37" transform="translate(354.199219 0)"/>
       <use xlink:href="#DejaVuSans-2d" transform="translate(417.822266 0)"/>
       <use xlink:href="#DejaVuSans-30" transform="translate(453.90625 0)"/>
       <use xlink:href="#DejaVuSans-31" transform="translate(517.529297 0)"/>
      </g>
     </g>
    </g>
    <g id="xtick_61">
     <g id="line2d_26">
      <g>
       <use xlink:href="#m839716772c" x="394.480713" y="506.320464" style="stroke: #000000; stroke-width: 0.8"/>
      </g>
     </g>
     <g id="text_26">
      <!-- 2000-07-01 -->
      <g transform="translate(343.111261 548.958716) rotate(-30) scale(0.1 -0.1)">
       <use xlink:href="#DejaVuSans-32"/>
       <use xlink:href="#DejaVuSans-30" transform="translate(63.623047 0)"/>
       <use xlink:href="#DejaVuSans-30" transform="translate(127.246094 0)"/>
       <use xlink:href="#DejaVuSans-30" transform="translate(190.869141 0)"/>
       <use xlink:href="#DejaVuSans-2d" transform="translate(254.492188 0)"/>
       <use xlink:href="#DejaVuSans-30" transform="translate(290.576172 0)"/>
       <use xlink:href="#DejaVuSans-37" transform="translate(354.199219 0)"/>
       <use xlink:href="#DejaVuSans-2d" transform="translate(417.822266 0)"/>
       <use xlink:href="#DejaVuSans-30" transform="translate(453.90625 0)"/>
       <use xlink:href="#DejaVuSans-31" transform="translate(517.529297 0)"/>
      </g>
     </g>
    </g>
    <g id="xtick_62">
     <g id="line2d_27">
      <g>
       <use xlink:href="#m839716772c" x="430.367167" y="506.320464" style="stroke: #000000; stroke-width: 0.8"/>
      </g>
     </g>
     <g id="text_27">
      <!-- 2001-07-01 -->
      <g transform="translate(378.997716 548.958716) rotate(-30) scale(0.1 -0.1)">
       <use xlink:href="#DejaVuSans-32"/>
       <use xlink:href="#DejaVuSans-30" transform="translate(63.623047 0)"/>
       <use xlink:href="#DejaVuSans-30" transform="translate(127.246094 0)"/>
       <use xlink:href="#DejaVuSans-31" transform="translate(190.869141 0)"/>
       <use xlink:href="#DejaVuSans-2d" transform="translate(254.492188 0)"/>
       <use xlink:href="#DejaVuSans-30" transform="translate(290.576172 0)"/>
       <use xlink:href="#DejaVuSans-37" transform="translate(354.199219 0)"/>
       <use xlink:href="#DejaVuSans-2d" transform="translate(417.822266 0)"/>
       <use xlink:href="#DejaVuSans-30" transform="translate(453.90625 0)"/>
       <use xlink:href="#DejaVuSans-31" transform="translate(517.529297 0)"/>
      </g>
     </g>
    </g>
    <g id="xtick_63">
     <g id="line2d_28">
      <g>
       <use xlink:href="#m839716772c" x="466.253621" y="506.320464" style="stroke: #000000; stroke-width: 0.8"/>
      </g>
     </g>
     <g id="text_28">
      <!-- 2002-07-01 -->
      <g transform="translate(414.88417 548.958716) rotate(-30) scale(0.1 -0.1)">
       <use xlink:href="#DejaVuSans-32"/>
       <use xlink:href="#DejaVuSans-30" transform="translate(63.623047 0)"/>
       <use xlink:href="#DejaVuSans-30" transform="translate(127.246094 0)"/>
       <use xlink:href="#DejaVuSans-32" transform="translate(190.869141 0)"/>
       <use xlink:href="#DejaVuSans-2d" transform="translate(254.492188 0)"/>
       <use xlink:href="#DejaVuSans-30" transform="translate(290.576172 0)"/>
       <use xlink:href="#DejaVuSans-37" transform="translate(354.199219 0)"/>
       <use xlink:href="#DejaVuSans-2d" transform="translate(417.822266 0)"/>
       <use xlink:href="#DejaVuSans-30" transform="translate(453.90625 0)"/>
       <use xlink:href="#DejaVuSans-31" transform="translate(517.529297 0)"/>
      </g>
     </g>
    </g>
    <g id="xtick_64">
     <g id="line2d_29">
      <g>
       <use xlink:href="#m839716772c" x="502.140075" y="506.320464" style="stroke: #000000; stroke-width: 0.8"/>
      </g>
     </g>
     <g id="text_29">
      <!-- 2003-07-01 -->
      <g transform="translate(450.770624 548.958716) rotate(-30) scale(0.1 -0.1)">
       <use xlink:href="#DejaVuSans-32"/>
       <use xlink:href="#DejaVuSans-30" transform="translate(63.623047 0)"/>
       <use xlink:href="#DejaVuSans-30" transform="translate(127.246094 0)"/>
       <use xlink:href="#DejaVuSans-33" transform="translate(190.869141 0)"/>
       <use xlink:href="#DejaVuSans-2d" transform="translate(254.492188 0)"/>
       <use xlink:href="#DejaVuSans-30" transform="translate(290.576172 0)"/>
       <use xlink:href="#DejaVuSans-37" transform="translate(354.199219 0)"/>
       <use xlink:href="#DejaVuSans-2d" transform="translate(417.822266 0)"/>
       <use xlink:href="#DejaVuSans-30" transform="translate(453.90625 0)"/>
       <use xlink:href="#DejaVuSans-31" transform="translate(517.529297 0)"/>
      </g>
     </g>
    </g>
    <g id="xtick_65">
     <g id="line2d_30">
      <g>
       <use xlink:href="#m839716772c" x="538.124849" y="506.320464" style="stroke: #000000; stroke-width: 0.8"/>
      </g>
     </g>
     <g id="text_30">
      <!-- 2004-07-01 -->
      <g transform="translate(486.755397 548.958716) rotate(-30) scale(0.1 -0.1)">
       <use xlink:href="#DejaVuSans-32"/>
       <use xlink:href="#DejaVuSans-30" transform="translate(63.623047 0)"/>
       <use xlink:href="#DejaVuSans-30" transform="translate(127.246094 0)"/>
       <use xlink:href="#DejaVuSans-34" transform="translate(190.869141 0)"/>
       <use xlink:href="#DejaVuSans-2d" transform="translate(254.492188 0)"/>
       <use xlink:href="#DejaVuSans-30" transform="translate(290.576172 0)"/>
       <use xlink:href="#DejaVuSans-37" transform="translate(354.199219 0)"/>
       <use xlink:href="#DejaVuSans-2d" transform="translate(417.822266 0)"/>
       <use xlink:href="#DejaVuSans-30" transform="translate(453.90625 0)"/>
       <use xlink:href="#DejaVuSans-31" transform="translate(517.529297 0)"/>
      </g>
     </g>
    </g>
    <g id="xtick_66">
     <g id="line2d_31">
      <g>
       <use xlink:href="#m839716772c" x="574.011303" y="506.320464" style="stroke: #000000; stroke-width: 0.8"/>
      </g>
     </g>
     <g id="text_31">
      <!-- 2005-07-01 -->
      <g transform="translate(522.641851 548.958716) rotate(-30) scale(0.1 -0.1)">
       <use xlink:href="#DejaVuSans-32"/>
       <use xlink:href="#DejaVuSans-30" transform="translate(63.623047 0)"/>
       <use xlink:href="#DejaVuSans-30" transform="translate(127.246094 0)"/>
       <use xlink:href="#DejaVuSans-35" transform="translate(190.869141 0)"/>
       <use xlink:href="#DejaVuSans-2d" transform="translate(254.492188 0)"/>
       <use xlink:href="#DejaVuSans-30" transform="translate(290.576172 0)"/>
       <use xlink:href="#DejaVuSans-37" transform="translate(354.199219 0)"/>
       <use xlink:href="#DejaVuSans-2d" transform="translate(417.822266 0)"/>
       <use xlink:href="#DejaVuSans-30" transform="translate(453.90625 0)"/>
       <use xlink:href="#DejaVuSans-31" transform="translate(517.529297 0)"/>
      </g>
     </g>
    </g>
    <g id="xtick_67">
     <g id="line2d_32">
      <g>
       <use xlink:href="#m839716772c" x="609.897757" y="506.320464" style="stroke: #000000; stroke-width: 0.8"/>
      </g>
     </g>
     <g id="text_32">
      <!-- 2006-07-01 -->
      <g transform="translate(558.528306 548.958716) rotate(-30) scale(0.1 -0.1)">
       <use xlink:href="#DejaVuSans-32"/>
       <use xlink:href="#DejaVuSans-30" transform="translate(63.623047 0)"/>
       <use xlink:href="#DejaVuSans-30" transform="translate(127.246094 0)"/>
       <use xlink:href="#DejaVuSans-36" transform="translate(190.869141 0)"/>
       <use xlink:href="#DejaVuSans-2d" transform="translate(254.492188 0)"/>
       <use xlink:href="#DejaVuSans-30" transform="translate(290.576172 0)"/>
       <use xlink:href="#DejaVuSans-37" transform="translate(354.199219 0)"/>
       <use xlink:href="#DejaVuSans-2d" transform="translate(417.822266 0)"/>
       <use xlink:href="#DejaVuSans-30" transform="translate(453.90625 0)"/>
       <use xlink:href="#DejaVuSans-31" transform="translate(517.529297 0)"/>
      </g>
     </g>
    </g>
    <g id="xtick_68">
     <g id="line2d_33">
      <g>
       <use xlink:href="#m839716772c" x="645.784211" y="506.320464" style="stroke: #000000; stroke-width: 0.8"/>
      </g>
     </g>
     <g id="text_33">
      <!-- 2007-07-01 -->
      <g transform="translate(594.41476 548.958716) rotate(-30) scale(0.1 -0.1)">
       <use xlink:href="#DejaVuSans-32"/>
       <use xlink:href="#DejaVuSans-30" transform="translate(63.623047 0)"/>
       <use xlink:href="#DejaVuSans-30" transform="translate(127.246094 0)"/>
       <use xlink:href="#DejaVuSans-37" transform="translate(190.869141 0)"/>
       <use xlink:href="#DejaVuSans-2d" transform="translate(254.492188 0)"/>
       <use xlink:href="#DejaVuSans-30" transform="translate(290.576172 0)"/>
       <use xlink:href="#DejaVuSans-37" transform="translate(354.199219 0)"/>
       <use xlink:href="#DejaVuSans-2d" transform="translate(417.822266 0)"/>
       <use xlink:href="#DejaVuSans-30" transform="translate(453.90625 0)"/>
       <use xlink:href="#DejaVuSans-31" transform="translate(517.529297 0)"/>
      </g>
     </g>
    </g>
    <g id="text_34">
     <!-- $t$ -->
     <g transform="translate(373.01354 562.358216) scale(0.1 -0.1)">
      <defs>
       <path id="DejaVuSans-Oblique-74" d="M 2706 3500 
L 2619 3053 
L 1472 3053 
L 1100 1153 
Q 1081 1047 1072 975 
Q 1063 903 1063 863 
Q 1063 663 1183 572 
Q 1303 481 1569 481 
L 2150 481 
L 2053 0 
L 1503 0 
Q 991 0 739 200 
Q 488 400 488 806 
Q 488 878 497 964 
Q 506 1050 525 1153 
L 897 3053 
L 409 3053 
L 500 3500 
L 978 3500 
L 1172 4494 
L 1747 4494 
L 1556 3500 
L 2706 3500 
z
" transform="scale(0.015625)"/>
      </defs>
      <use xlink:href="#DejaVuSans-Oblique-74" transform="translate(0 0.78125)"/>
     </g>
    </g>
   </g>
   <g id="matplotlib.axis_8">
    <g id="ytick_14">
     <g id="line2d_34">
      <g>
       <use xlink:href="#m1cae5a1cd3" x="40.827081" y="494.059215" style="stroke: #000000; stroke-width: 0.8"/>
      </g>
     </g>
     <g id="text_35">
      <!-- −2 -->
      <g transform="translate(19.084893 497.858434) scale(0.1 -0.1)">
       <use xlink:href="#DejaVuSans-2212"/>
       <use xlink:href="#DejaVuSans-32" transform="translate(83.789062 0)"/>
      </g>
     </g>
    </g>
    <g id="ytick_15">
     <g id="line2d_35">
      <g>
       <use xlink:href="#m1cae5a1cd3" x="40.827081" y="473.168272" style="stroke: #000000; stroke-width: 0.8"/>
      </g>
     </g>
     <g id="text_36">
      <!-- −1 -->
      <g transform="translate(19.084893 476.967491) scale(0.1 -0.1)">
       <use xlink:href="#DejaVuSans-2212"/>
       <use xlink:href="#DejaVuSans-31" transform="translate(83.789062 0)"/>
      </g>
     </g>
    </g>
    <g id="ytick_16">
     <g id="line2d_36">
      <g>
       <use xlink:href="#m1cae5a1cd3" x="40.827081" y="452.277329" style="stroke: #000000; stroke-width: 0.8"/>
      </g>
     </g>
     <g id="text_37">
      <!-- 0 -->
      <g transform="translate(27.464581 456.076547) scale(0.1 -0.1)">
       <use xlink:href="#DejaVuSans-30"/>
      </g>
     </g>
    </g>
    <g id="ytick_17">
     <g id="line2d_37">
      <g>
       <use xlink:href="#m1cae5a1cd3" x="40.827081" y="431.386386" style="stroke: #000000; stroke-width: 0.8"/>
      </g>
     </g>
     <g id="text_38">
      <!-- 1 -->
      <g transform="translate(27.464581 435.185604) scale(0.1 -0.1)">
       <use xlink:href="#DejaVuSans-31"/>
      </g>
     </g>
    </g>
    <g id="ytick_18">
     <g id="line2d_38">
      <g>
       <use xlink:href="#m1cae5a1cd3" x="40.827081" y="410.495442" style="stroke: #000000; stroke-width: 0.8"/>
      </g>
     </g>
     <g id="text_39">
      <!-- 2 -->
      <g transform="translate(27.464581 414.294661) scale(0.1 -0.1)">
       <use xlink:href="#DejaVuSans-32"/>
      </g>
     </g>
    </g>
   </g>
   <g id="line2d_39">
    <path d="M 71.207668 449.472582 
L 74.255558 449.702747 
L 77.303449 451.653849 
L 80.253021 448.474134 
L 83.300911 453.717935 
L 86.250483 461.610756 
L 89.298374 454.876944 
L 92.346264 451.966118 
L 95.197517 453.600413 
L 98.245407 449.456226 
L 101.194979 451.377318 
L 104.24287 452.50533 
L 107.192441 453.795688 
L 110.240332 456.383025 
L 113.288222 453.994129 
L 116.237794 455.627367 
L 119.285685 451.601975 
L 122.235256 446.988324 
L 125.283147 447.430944 
L 128.331037 451.256234 
L 131.083971 452.126119 
L 134.131862 453.226097 
L 137.081433 453.322756 
L 140.129324 452.96255 
L 143.078895 455.263468 
L 146.126786 453.240267 
L 149.174677 452.205856 
L 152.124248 455.529544 
L 155.172139 452.392178 
L 158.12171 435.087731 
L 161.169601 451.679647 
L 164.217492 454.748266 
L 166.970425 451.749197 
L 170.018316 457.882871 
L 172.967887 453.51004 
L 176.015778 451.287099 
L 178.965349 453.70744 
L 182.01324 447.962949 
L 185.061131 448.764633 
L 188.010702 451.719179 
L 191.058593 447.226998 
L 194.008165 466.008827 
L 197.056055 460.829164 
L 200.103946 452.910215 
L 202.856879 447.40082 
L 205.90477 450.295468 
L 208.854341 450.921791 
L 211.902232 450.753144 
L 214.851804 456.148172 
L 217.899694 449.776051 
L 220.947585 457.06943 
L 223.897157 451.948753 
L 226.945047 454.204612 
L 229.894619 457.419633 
L 232.942509 442.826759 
L 235.9904 448.517407 
L 238.841652 454.491016 
L 241.889543 451.226669 
L 244.839115 448.427352 
L 247.887005 456.737446 
L 250.836577 448.310272 
L 253.884468 452.6335 
L 256.932358 452.292756 
L 259.88193 453.203201 
L 262.92982 454.92556 
L 265.879392 452.152385 
L 268.927283 451.967465 
L 271.975173 453.730364 
L 274.728107 456.463256 
L 277.775997 449.644104 
L 280.725569 453.579908 
L 283.77346 449.573446 
L 286.723031 451.680311 
L 289.770922 455.66313 
L 292.818812 452.270024 
L 295.768384 446.977274 
L 298.816275 455.303936 
L 301.765846 442.061956 
L 304.813737 463.792146 
L 307.861627 450.428294 
L 310.614561 454.922954 
L 313.662452 451.632589 
L 316.612023 453.108826 
L 319.659914 450.28714 
L 322.609485 453.139942 
L 325.657376 458.056076 
L 328.705267 447.818956 
L 331.654838 456.011557 
L 334.702729 451.246758 
L 337.6523 450.65684 
L 340.700191 456.30183 
L 343.748082 452.642279 
L 346.501015 443.245011 
L 349.548906 454.736937 
L 352.498477 455.051894 
L 355.546368 453.136968 
L 358.495939 458.094056 
L 361.54383 449.645615 
L 364.591721 447.86859 
L 367.541292 462.01394 
L 370.589183 453.35522 
L 373.538755 448.673544 
L 376.586645 451.03129 
L 379.634536 449.97481 
L 382.485788 457.834894 
L 385.533679 454.86315 
L 388.483251 454.461308 
L 391.531141 446.896239 
L 394.480713 443.999827 
L 397.528603 448.073271 
L 400.576494 457.595548 
L 403.526066 443.510794 
L 406.573956 458.429094 
L 409.523528 460.119149 
L 412.571418 450.204505 
L 415.619309 457.134899 
L 418.372242 439.949018 
L 421.420133 449.857323 
L 424.369705 450.72422 
L 427.417595 458.50889 
L 430.367167 456.301768 
L 433.415058 448.290711 
L 436.462948 464.638176 
L 439.41252 451.153376 
L 442.46041 431.615252 
L 445.409982 465.2232 
L 448.457873 442.78636 
L 451.505763 455.337282 
L 454.258697 463.358173 
L 457.306587 447.158393 
L 460.256159 447.165841 
L 463.30405 457.630607 
L 466.253621 446.655502 
L 469.301512 453.693603 
L 472.349402 441.685975 
L 475.298974 454.046708 
L 478.346865 457.815743 
L 481.296436 444.667787 
L 484.344327 453.134788 
L 487.392217 453.659323 
L 490.145151 455.300097 
L 493.193041 461.153794 
L 496.142613 448.307421 
L 499.190504 447.220448 
L 505.187966 463.987554 
L 508.235857 460.311039 
L 511.185428 449.115803 
L 514.233319 476.027642 
L 517.18289 451.709632 
L 520.230781 464.380525 
L 523.278672 434.424736 
L 526.129924 440.501277 
L 529.177815 447.664463 
L 532.127386 455.185444 
L 535.175277 452.968639 
L 538.124849 443.995164 
L 541.172739 452.406351 
L 544.22063 444.85299 
L 547.170201 452.26943 
L 550.218092 445.558918 
L 553.167664 448.766031 
L 556.215554 459.669568 
L 559.263445 458.052852 
L 562.016378 468.424341 
L 565.064269 436.979725 
L 568.013841 468.785952 
L 571.061731 444.60491 
L 574.011303 457.813337 
L 577.059193 442.249292 
L 580.107084 424.827189 
L 583.056656 464.601752 
L 586.104546 451.758579 
L 589.054118 454.404403 
L 592.102008 446.957509 
L 595.149899 480.811433 
L 597.902832 444.026632 
L 600.950723 468.941946 
L 603.900295 439.267049 
L 606.948185 454.443264 
L 609.897757 468.552102 
L 612.945648 471.48154 
L 615.993538 498.227089 
L 618.94311 432.362532 
L 621.991 429.925969 
L 624.940572 446.639805 
L 627.988463 431.769017 
L 631.036353 468.400828 
L 633.789287 414.465546 
L 636.837177 501.723186 
L 639.786749 451.073114 
L 642.83464 423.450337 
L 645.784211 438.794311 
L 648.832102 442.017161 
L 651.879992 431.391636 
L 654.829564 461.175237 
L 657.877455 469.555717 
L 660.827026 455.607898 
L 663.874917 467.870077 
L 666.922807 425.708602 
L 669.77406 480.932719 
L 672.821951 409.777626 
L 675.771522 455.177129 
L 678.819413 473.278081 
L 678.819413 473.278081 
" clip-path="url(#pfeda9a26f1)" style="fill: none; stroke: #0000ff; stroke-width: 1.5; stroke-linecap: square"/>
   </g>
   <g id="patch_18">
    <path d="M 40.827081 506.320464 
L 40.827081 405.180348 
" style="fill: none; stroke: #000000; stroke-width: 0.8; stroke-linejoin: miter; stroke-linecap: square"/>
   </g>
   <g id="patch_19">
    <path d="M 709.2 506.320464 
L 709.2 405.180348 
" style="fill: none; stroke: #000000; stroke-width: 0.8; stroke-linejoin: miter; stroke-linecap: square"/>
   </g>
   <g id="patch_20">
    <path d="M 40.827081 506.320464 
L 709.2 506.320464 
" style="fill: none; stroke: #000000; stroke-width: 0.8; stroke-linejoin: miter; stroke-linecap: square"/>
   </g>
   <g id="patch_21">
    <path d="M 40.827081 405.180348 
L 709.2 405.180348 
" style="fill: none; stroke: #000000; stroke-width: 0.8; stroke-linejoin: miter; stroke-linecap: square"/>
   </g>
   <g id="text_40">
    <!-- Residual -->
    <g transform="translate(349.67479 399.180348) scale(0.12 -0.12)">
     <defs>
      <path id="DejaVuSans-52" d="M 2841 2188 
Q 3044 2119 3236 1894 
Q 3428 1669 3622 1275 
L 4263 0 
L 3584 0 
L 2988 1197 
Q 2756 1666 2539 1819 
Q 2322 1972 1947 1972 
L 1259 1972 
L 1259 0 
L 628 0 
L 628 4666 
L 2053 4666 
Q 2853 4666 3247 4331 
Q 3641 3997 3641 3322 
Q 3641 2881 3436 2590 
Q 3231 2300 2841 2188 
z
M 1259 4147 
L 1259 2491 
L 2053 2491 
Q 2509 2491 2742 2702 
Q 2975 2913 2975 3322 
Q 2975 3731 2742 3939 
Q 2509 4147 2053 4147 
L 1259 4147 
z
" transform="scale(0.015625)"/>
      <path id="DejaVuSans-69" d="M 603 3500 
L 1178 3500 
L 1178 0 
L 603 0 
L 603 3500 
z
M 603 4863 
L 1178 4863 
L 1178 4134 
L 603 4134 
L 603 4863 
z
" transform="scale(0.015625)"/>
      <path id="DejaVuSans-75" d="M 544 1381 
L 544 3500 
L 1119 3500 
L 1119 1403 
Q 1119 906 1312 657 
Q 1506 409 1894 409 
Q 2359 409 2629 706 
Q 2900 1003 2900 1516 
L 2900 3500 
L 3475 3500 
L 3475 0 
L 2900 0 
L 2900 538 
Q 2691 219 2414 64 
Q 2138 -91 1772 -91 
Q 1169 -91 856 284 
Q 544 659 544 1381 
z
M 1991 3584 
L 1991 3584 
z
" transform="scale(0.015625)"/>
     </defs>
     <use xlink:href="#DejaVuSans-52"/>
     <use xlink:href="#DejaVuSans-65" transform="translate(64.982422 0)"/>
     <use xlink:href="#DejaVuSans-73" transform="translate(126.505859 0)"/>
     <use xlink:href="#DejaVuSans-69" transform="translate(178.605469 0)"/>
     <use xlink:href="#DejaVuSans-64" transform="translate(206.388672 0)"/>
     <use xlink:href="#DejaVuSans-75" transform="translate(269.865234 0)"/>
     <use xlink:href="#DejaVuSans-61" transform="translate(333.244141 0)"/>
     <use xlink:href="#DejaVuSans-6c" transform="translate(394.523438 0)"/>
    </g>
   </g>
  </g>
 </g>
 <defs>
  <clipPath id="pe23426aa24">
   <rect x="40.827081" y="25.44" width="668.372919" height="101.140116"/>
  </clipPath>
  <clipPath id="p097cb86e9c">
   <rect x="40.827081" y="152.020116" width="668.372919" height="101.140116"/>
  </clipPath>
  <clipPath id="p49810fbc20">
   <rect x="40.827081" y="278.600232" width="668.372919" height="101.140116"/>
  </clipPath>
  <clipPath id="pfeda9a26f1">
   <rect x="40.827081" y="405.180348" width="668.372919" height="101.140116"/>
  </clipPath>
 </defs>
</svg>
